<?xml version="1.0" encoding="UTF-8"?>
<svg version="1.1" xmlns="http://www.w3.org/2000/svg" width="512" height="512">
<path d="M0 0 C4.12279192 0.00914431 8.24551904 -0.00496515 12.36829758 -0.01591969 C20.42114874 -0.03361055 28.47384991 -0.02990731 36.5267067 -0.01826912 C43.07743169 -0.00919766 49.62811496 -0.00802676 56.17884445 -0.01236439 C57.11483144 -0.01297732 58.05081843 -0.01359025 59.01516867 -0.01422176 C60.9172179 -0.01550079 62.81926713 -0.01679765 64.72131634 -0.01811212 C82.51389757 -0.02949029 100.30639608 -0.01644775 118.09896374 0.00508934 C133.3317681 0.0229578 148.56445049 0.01985291 163.79725266 0.0014143 C181.53063333 -0.02004141 199.26394168 -0.02839191 216.99733353 -0.01613665 C218.89198429 -0.01486259 220.78663507 -0.0136051 222.68128586 -0.01236439 C223.61324075 -0.01174729 224.54519565 -0.01113018 225.5053916 -0.01049438 C232.04044057 -0.00705555 238.57544327 -0.01283799 245.11048508 -0.0222826 C253.08571738 -0.03355638 261.06079241 -0.03035036 269.03600693 -0.00915962 C273.09708423 0.00127898 277.15790031 0.00559719 281.21897507 -0.00775623 C315.20309151 -0.10993334 342.84879771 5.5528535 368.02772141 30.05024242 C391.7657425 55.03570204 396.06230555 83.83956048 395.95296383 117.09283352 C395.94381952 121.21562544 395.95792898 125.33835256 395.96888351 129.4611311 C395.98657438 137.51398226 395.98287114 145.56668343 395.97123295 153.61954021 C395.96216149 160.17026521 395.96099059 166.72094848 395.96532822 173.27167797 C395.96594115 174.20766496 395.96655408 175.14365195 395.96718559 176.10800219 C395.96846462 178.01005142 395.96976148 179.91210065 395.97107595 181.81414986 C395.98245411 199.60673109 395.96941158 217.39922959 395.94787449 235.19179726 C395.93000603 250.42460162 395.93311092 265.65728401 395.95154953 280.89008617 C395.97300524 298.62346685 395.98135574 316.3567752 395.96910048 334.09016705 C395.96782642 335.98481781 395.96656893 337.87946859 395.96532822 339.77411938 C395.96471111 340.70607427 395.96409401 341.63802917 395.96345821 342.59822512 C395.96001938 349.13327409 395.96580182 355.66827679 395.97524643 362.2033186 C395.98652021 370.17855089 395.98331419 378.15362593 395.96212345 386.12884045 C395.95168485 390.18991775 395.94736664 394.25073383 395.96072006 398.31180859 C396.06289717 432.29592503 390.40011032 459.94163123 365.90272141 485.12055492 C340.91726179 508.85857602 312.11340335 513.15513907 278.86013031 513.04579735 C274.73733839 513.03665304 270.61461127 513.0507625 266.49183273 513.06171703 C258.43898157 513.0794079 250.3862804 513.07570466 242.33342361 513.06406647 C235.78269862 513.05499501 229.23201535 513.05382411 222.68128586 513.05816174 C221.74529887 513.05877467 220.80931188 513.0593876 219.84496164 513.06001911 C217.94291241 513.06129814 216.04086318 513.062595 214.13881397 513.06390947 C196.34623274 513.07528763 178.55373423 513.0622451 160.76116657 513.04070801 C145.52836221 513.02283955 130.29567982 513.02594444 115.06287766 513.04438305 C97.32949698 513.06583876 79.59618863 513.07418926 61.86279678 513.06193399 C59.96814602 513.06065994 58.07349524 513.05940245 56.17884445 513.05816174 C55.24688956 513.05754463 54.31493466 513.05692753 53.35473871 513.05629173 C46.81968974 513.0528529 40.28468704 513.05863534 33.74964523 513.06807995 C25.77441293 513.07935373 17.7993379 513.07614771 9.82412338 513.05495697 C5.76304608 513.04451837 1.70223 513.04020016 -2.35884476 513.05355358 C-36.3429612 513.15573069 -63.9886674 507.49294384 -89.16759109 482.99555492 C-112.90561219 458.01009531 -117.20217524 429.20623687 -117.09283352 395.95296383 C-117.08368921 391.83017191 -117.09779867 387.70744478 -117.1087532 383.58466625 C-117.12644407 375.53181509 -117.12274083 367.47911392 -117.11110264 359.42625713 C-117.10203118 352.87553214 -117.10086028 346.32484887 -117.10519791 339.77411938 C-117.10581084 338.83813239 -117.10642377 337.9021454 -117.10705528 336.93779516 C-117.10833431 335.03574593 -117.10963117 333.1336967 -117.11094564 331.23164749 C-117.1223238 313.43906626 -117.10928127 295.64656775 -117.08774418 277.85400009 C-117.06987572 262.62119573 -117.07298061 247.38851334 -117.09141922 232.15571117 C-117.11287493 214.4223305 -117.12122543 196.68902215 -117.10897017 178.9556303 C-117.10769611 177.06097954 -117.10643862 175.16632876 -117.10519791 173.27167797 C-117.10427225 171.87374563 -117.10427225 171.87374563 -117.1033279 170.44757223 C-117.09988907 163.91252326 -117.10567151 157.37752056 -117.11511612 150.84247875 C-117.1263899 142.86724645 -117.12318388 134.89217142 -117.10199314 126.9169569 C-117.09155454 122.8558796 -117.08723633 118.79506352 -117.10058975 114.73398876 C-117.20276686 80.74987232 -111.53998001 53.10416612 -87.04259109 27.92524242 C-62.05713148 4.18722132 -33.25327304 -0.10934172 0 0 Z M-72.81602859 50.82367992 C-78.88705161 57.86511987 -82.79257416 66.0991741 -86.56993484 74.52289867 C-86.93216141 75.32469555 -87.29438797 76.12649242 -87.66759109 76.95258617 C-93.79270097 92.77322174 -91.86120163 111.99759073 -91.83138418 128.62422323 C-91.82680988 132.40615981 -91.83386782 136.18807878 -91.83934402 139.97001171 C-91.84818716 147.35620499 -91.84633883 154.74235738 -91.84051874 162.1285522 C-91.83598211 168.13725253 -91.83539795 174.1459415 -91.83756638 180.15464306 C-91.83787284 181.01334415 -91.83817931 181.87204524 -91.83849506 182.75676757 C-91.83913458 184.50178806 -91.83978301 186.24680855 -91.84044024 187.99182904 C-91.84612866 204.31361418 -91.8396091 220.63537677 -91.82883951 236.95715821 C-91.81990536 250.92927829 -91.82145782 264.90136513 -91.83067703 278.87348461 C-91.84140606 295.14116461 -91.84557947 311.4088249 -91.83945251 327.67650795 C-91.83881548 329.41472339 -91.83818674 331.15293884 -91.83756638 332.89115429 C-91.83725782 333.7461498 -91.83694927 334.6011453 -91.83663137 335.48204976 C-91.83491231 341.47602778 -91.83780242 347.46999317 -91.84252548 353.46396923 C-91.84816367 360.77935355 -91.8465566 368.094695 -91.83596399 375.41007447 C-91.83074652 379.13476272 -91.82858261 382.85937979 -91.8352623 386.58406734 C-91.8852409 417.14277522 -90.59651802 443.08266912 -68.56993484 466.52289867 C-46.74132908 487.87053516 -17.95099047 487.83510999 10.59906912 487.78434801 C14.40827092 487.77977866 18.21745512 487.78682926 22.02665329 487.79230785 C29.46812763 487.80115615 36.9095614 487.79930033 44.35103726 487.79348257 C50.40410648 487.788948 56.4571644 487.7883609 62.51023483 487.7905302 C63.37491086 487.79083667 64.23958688 487.79114314 65.13046521 487.79145889 C66.88756697 487.7920984 68.64466872 487.79274683 70.40177047 487.79340407 C86.84083651 487.799094 103.27988016 487.79257053 119.71894252 487.78180334 C133.79486179 487.77286905 147.87074805 487.77442147 161.94666672 487.78364086 C178.33079222 487.7943672 194.71489816 487.7985448 211.09902668 487.79241633 C212.84931628 487.7917793 214.59960588 487.79115056 216.34989548 487.7905302 C217.2108549 487.79022165 218.07181433 487.7899131 218.95886344 487.7895952 C224.99788333 487.78787534 231.03689071 487.790768 237.07590866 487.79548931 C244.44514447 487.80112448 251.81433772 487.79952665 259.18356872 487.78892782 C262.93647968 487.78370636 266.68931994 487.78155346 270.44223022 487.78822613 C300.72722726 487.83733658 326.20454705 486.34771933 349.43006516 464.52289867 C356.77049466 457.01708687 361.18066118 447.99930605 365.43006516 438.52289867 C365.79229172 437.7211018 366.15451828 436.91930492 366.52772141 436.09321117 C372.65283128 420.27257561 370.72133194 401.04820662 370.69151449 384.42157412 C370.68694019 380.63963754 370.69399813 376.85771857 370.69947433 373.07578564 C370.70831747 365.68959235 370.70646914 358.30343996 370.70064905 350.91724515 C370.69611242 344.90854481 370.69552826 338.89985585 370.69769669 332.89115429 C370.69815638 331.60310266 370.69815638 331.60310266 370.69862537 330.28902978 C370.69926489 328.54400928 370.69991332 326.7989888 370.70057055 325.05396831 C370.70625897 308.73218317 370.69973941 292.41042058 370.68896982 276.08863914 C370.68003567 262.11651906 370.68158813 248.14443222 370.69080734 234.17231274 C370.70153637 217.90463274 370.70570978 201.63697244 370.69958282 185.3692894 C370.69894579 183.63107395 370.69831705 181.89285851 370.69769669 180.15464306 C370.69738813 179.29964755 370.69707958 178.44465205 370.69676168 177.56374758 C370.69504262 171.56976957 370.69793273 165.57580418 370.70265579 159.58182812 C370.70829398 152.2664438 370.70668691 144.95110235 370.6960943 137.63572288 C370.69087683 133.91103463 370.68871292 130.18641755 370.69539261 126.46173 C370.74532538 96.00648763 369.64705255 69.8473794 347.43006516 46.52289867 C329.52051094 29.30217347 307.32148778 25.35762118 283.29427719 25.38918591 C282.01393213 25.38692035 280.73358707 25.38465479 279.41444367 25.38232058 C275.89008559 25.37624953 272.3657514 25.37633059 268.8413893 25.37751496 C265.02869471 25.37772016 261.21600756 25.37218885 257.4033165 25.36745739 C249.94445784 25.35917607 242.48560709 25.35640369 235.02674422 25.35584501 C228.95925558 25.35536865 222.89176952 25.35330792 216.82428169 25.35014439 C199.5943367 25.34134466 182.36439791 25.33672394 165.13445065 25.33747486 C163.74321025 25.33753479 163.74321025 25.33753479 162.32386398 25.33759594 C161.39522843 25.33763682 160.46659287 25.3376777 159.50981685 25.33771982 C144.46724086 25.33812609 129.42468993 25.3285596 114.38212118 25.31445757 C98.90956411 25.30006774 83.43701924 25.29318882 67.96445531 25.29405135 C59.28864208 25.29438242 50.61285513 25.29167487 41.93704796 25.2808733 C34.54939618 25.27173391 27.16178258 25.26962113 19.77412758 25.27638272 C16.0111221 25.27963067 12.24818971 25.27976766 8.48519135 25.27102947 C-22.97700002 25.20267614 -49.47916359 26.91861299 -72.81602859 50.82367992 Z " fill="#000000" transform="translate(116.5699348449707,-0.5228986740112305)"/>
<path d="M0 0 C9.25685954 6.95179175 15.6179745 17.7372524 22.23974609 27.05810547 C25.10850476 31.06565729 28.04361359 35.02369278 30.9765625 38.984375 C35.51473865 45.12403925 40.01621734 51.28794296 44.4765625 57.484375 C49.02559922 63.80155413 53.60888792 70.0921728 58.2265625 76.359375 C59.03963867 77.46345703 59.03963867 77.46345703 59.86914062 78.58984375 C63.12442293 83.00073169 66.40348197 87.39343702 69.69433594 91.77783203 C70.10787323 92.32899185 70.52141052 92.88015167 70.94747925 93.44801331 C71.95706428 94.79354929 72.96679799 96.1389737 73.9765625 97.484375 C73.97798752 96.41219727 73.97941254 95.34001953 73.98088074 94.23535156 C73.99757682 84.11292941 74.04043025 73.99090792 74.10865307 63.86869812 C74.14289022 58.66517413 74.16802799 53.46194272 74.17211914 48.25830078 C74.17640906 43.2329878 74.20492965 38.20833447 74.24999428 33.18322754 C74.26294705 31.26961108 74.26728485 29.35591559 74.26271629 27.44226074 C74.25779443 24.75375844 74.28397164 22.06717243 74.31713867 19.37890625 C74.30851303 18.59415421 74.29988739 17.80940216 74.29100037 17.00086975 C74.41213822 11.11311523 76.23755507 7.03762689 79.9765625 2.484375 C85.79491014 -2.05393616 90.74126829 -3.3585719 97.9765625 -2.515625 C103.27951684 -0.80379413 106.95697922 1.72272444 109.9765625 6.484375 C111.78764329 10.29492137 112.22903293 13.30664373 112.23725891 17.5120697 C112.24434372 18.72191025 112.25142853 19.93175079 112.25872803 21.17825317 C112.25625061 22.49735687 112.25377319 23.81646057 112.2512207 25.17553711 C112.25557011 26.58524343 112.26075402 27.99494738 112.26670837 29.40464783 C112.2800848 33.22697346 112.28067858 37.04920013 112.27814507 40.8715446 C112.27707448 44.06488481 112.28196097 47.25820507 112.2867505 50.45154101 C112.2978409 57.98618253 112.29828566 65.52077419 112.29223633 73.05541992 C112.2861955 80.82338467 112.29851133 88.59116834 112.3198064 96.35910219 C112.33742971 103.03356325 112.34342262 109.7079667 112.34016865 116.38245016 C112.33835688 120.3665529 112.34098141 124.35052645 112.35488319 128.33460808 C112.36746893 132.08163015 112.36551057 135.82837016 112.35247231 139.57538795 C112.34898351 141.60192222 112.36027888 143.62846512 112.37203979 145.65496826 C112.36502548 146.86762863 112.35801117 148.080289 112.3507843 149.32969666 C112.35095204 150.37957732 112.35111979 151.42945799 112.35129261 152.51115322 C111.75253913 157.26184402 109.82034951 161.29792323 106.0390625 164.296875 C101.06061365 167.85290989 95.97555785 168.26480856 89.9765625 167.484375 C81.02421826 164.86041203 76.27133797 158.80927164 70.9765625 151.484375 C69.84154297 149.92009766 69.84154297 149.92009766 68.68359375 148.32421875 C67.03089561 146.02749707 65.39553617 143.71918334 63.765625 141.40625 C60.62783882 136.96920645 57.39647699 132.60271814 54.1640625 128.234375 C49.02112479 121.2777981 43.93175187 114.2855364 38.87841797 107.26367188 C34.35802714 100.99137237 29.77863525 94.76379915 25.171875 88.5546875 C21.6502855 83.79670459 18.18941364 78.9981336 14.75268555 74.17871094 C14.29189354 73.53304169 13.83110153 72.88737244 13.35634613 72.22213745 C12.22948189 70.64307573 11.10298464 69.06375212 9.9765625 67.484375 C9.97069626 68.53371719 9.96483002 69.58305939 9.95878601 70.66419983 C9.90150689 80.56613407 9.82871805 90.4678498 9.74084759 100.3695612 C9.69617095 105.45981823 9.65690877 110.54999572 9.63012695 115.64038086 C9.60406711 120.55534068 9.56364551 125.46999398 9.51337624 130.38476372 C9.49672569 132.25734067 9.48520014 134.12997062 9.47894859 136.00261116 C9.46928779 138.63105321 9.44120512 141.25871429 9.40893555 143.88696289 C9.41037064 144.65660873 9.41180573 145.42625458 9.4132843 146.21922302 C9.30289314 152.60089646 7.86012388 157.24446417 3.6640625 162.234375 C-1.26002314 166.35686531 -5.33026867 168.07939669 -11.71875 167.83203125 C-17.0487828 167.02800935 -21.30558964 164.60142817 -24.8984375 160.609375 C-28.21846817 155.72697695 -29.27303129 151.39335915 -29.27740479 145.53297424 C-29.28304443 144.36527496 -29.28868408 143.19757568 -29.29449463 141.99449158 C-29.29044617 140.72730789 -29.28639771 139.46012421 -29.28222656 138.15454102 C-29.28493906 136.79557101 -29.28850144 135.43660248 -29.29284668 134.07763672 C-29.3019431 130.39785044 -29.29843757 126.71817666 -29.29208851 123.03838849 C-29.28701324 119.18061353 -29.2917243 115.32284799 -29.29486084 111.46507263 C-29.29849647 104.98638181 -29.29371242 98.50773662 -29.28417969 92.02905273 C-29.2733005 84.54911531 -29.27681843 77.06928697 -29.2878325 69.58935219 C-29.29692234 63.15774307 -29.29818222 56.7261667 -29.29295516 50.29455322 C-29.2898442 46.45745968 -29.28940195 42.62041732 -29.29602814 38.7833271 C-29.30182553 35.17422278 -29.29776112 31.56525841 -29.28623962 27.95616913 C-29.28235373 26.00737701 -29.28825859 24.058573 -29.29449463 22.10978699 C-29.25987743 14.92492656 -29.17457622 8.98993439 -25.3359375 2.734375 C-18.52367781 -3.89376956 -8.18044741 -4.7583479 0 0 Z " fill="#000000" transform="translate(145.0234375,173.515625)"/>
<path d="M0 0 C3.68913748 3.66315764 6.83143581 6.86280129 7.12304783 12.29008007 C7.12166514 13.64649845 7.12166514 13.64649845 7.12025452 15.03031921 C7.12162918 16.06938416 7.12300385 17.1084491 7.12442017 18.17900085 C7.11902725 19.88803337 7.11902725 19.88803337 7.11352539 21.6315918 C7.11367142 22.83171906 7.11381744 24.03184631 7.1139679 25.26834106 C7.1133902 28.55940532 7.10837154 31.850407 7.10139394 35.14146018 C7.0951468 38.58078054 7.09455552 42.02010172 7.09336853 45.45942688 C7.09025924 51.97233141 7.08205125 58.48521917 7.07201904 64.99811631 C7.06084545 72.4127946 7.05534431 79.82747368 7.05032361 87.24215829 C7.03986831 102.49478191 7.02227662 117.74738879 7 133 C8.25626473 132.99230858 8.25626473 132.99230858 9.53790855 132.98446178 C10.71128588 132.97727784 11.8846632 132.9700939 13.09359741 132.96269226 C14.38781427 132.9547379 15.68203114 132.94678354 17.01546669 132.93858814 C19.84075043 132.92127482 22.66603603 132.90431976 25.49132347 132.88762188 C32.06894902 132.84848299 38.64646658 132.80593546 45.2239418 132.74595833 C48.4331098 132.72049064 51.64231055 132.71502613 54.8515625 132.70703125 C56.15955811 132.69168335 57.46755371 132.67633545 58.81518555 132.66052246 C60.7022522 132.65997864 60.7022522 132.65997864 62.62744141 132.65942383 C63.71554108 132.65276199 64.80364075 132.64610016 65.92471313 132.63923645 C70.69750243 133.19913492 73.96064502 134.90290308 77.25 138.375 C80.69047656 143.53571484 81.51798645 147.2692391 80.7265625 153.42578125 C79.44843009 157.9542181 76.83666793 161.31499054 73 164 C67.64129856 165.58446735 62.97174299 166.25184088 57.34985352 166.25878906 C56.63162415 166.2622937 55.91339478 166.26579834 55.17340088 166.26940918 C52.82513443 166.27813232 50.47717518 166.2724104 48.12890625 166.265625 C46.4803817 166.26697451 44.83185755 166.26891742 43.18333435 166.27142334 C39.73798817 166.27436198 36.29274612 166.27011822 32.84741211 166.26074219 C28.45187096 166.24935741 24.05657437 166.25590895 19.66104221 166.26788712 C16.25935557 166.27514753 12.85772597 166.27279852 9.45603752 166.26763153 C7.83627226 166.26630611 6.21650166 166.26790352 4.59674263 166.27259064 C-17.3936813 166.32226507 -17.3936813 166.32226507 -22.875 161.25 C-23.40867187 160.78078125 -23.94234375 160.3115625 -24.4921875 159.828125 C-28.05158785 155.51258261 -29.37489376 151.46438359 -29.38095093 145.92797852 C-29.3894104 144.73359161 -29.39786987 143.53920471 -29.40658569 142.30862427 C-29.400513 141.01181732 -29.39444031 139.71501038 -29.38818359 138.37890625 C-29.39225212 136.98875517 -29.39759559 135.59860733 -29.40411377 134.20846558 C-29.41775984 130.4439942 -29.41250004 126.6797702 -29.40297651 122.91529465 C-29.39536582 118.97029722 -29.40242944 115.02532055 -29.40713501 111.08032227 C-29.41258846 104.45617888 -29.40541175 97.83213594 -29.39111328 91.20800781 C-29.37478751 83.55645861 -29.38007631 75.90514924 -29.3965925 68.25360584 C-29.41021909 61.67677925 -29.41212131 55.10002474 -29.40427649 48.52318859 C-29.39960641 44.59835569 -29.39895677 40.67363542 -29.40888596 36.74880981 C-29.41757047 33.05838961 -29.4115069 29.36827777 -29.39420319 25.67789078 C-29.38836299 23.68239004 -29.39724122 21.68686314 -29.40658569 19.69137573 C-29.39812622 18.49698883 -29.38966675 17.30260193 -29.38095093 16.07202148 C-29.37981985 15.03818832 -29.37868877 14.00435516 -29.37752342 12.93919373 C-28.72148209 7.83160977 -26.50842346 3.9479401 -22.5625 0.6875 C-21.98628906 0.19636719 -21.41007812 -0.29476562 -20.81640625 -0.80078125 C-14.70725808 -4.83413284 -5.79733391 -3.99371892 0 0 Z " fill="#000000" transform="translate(315,174)"/>
</svg>
